# xmcd CD database file
#
# Track frame offsets:
#	150
#	12438
#	22128
#	44331
#	59374
#	74836
#	89675
#	105984
#	117640
#	135836
#	164990
#	182217
#	198801
#
# Disc length: 2840 seconds
#
# Revision: 0
# Processed by: cddbd v1.5.1PL2 Copyright (c) Steve Scherf et al.
# Submitted via: CDex 1.60beta1
#
DISCID=c20b160d
DTITLE=バウハウス - Conseils de vent
DYEAR=1900
DGENRE=環境音楽
TTITLE0=春風-vent de ressort-
TTITLE1=鍵火-verouillez le feu-
TTITLE2=月 -Lune et soleil et terre-
TTITLE3=桜舞-fleur de cerise dans le ciel-
TTITLE4=泡沫-mousse-
TTITLE5=結婚-Ceremone-
TTITLE6=嘘答-reponse de menteur-
TTITLE7=真実-vrai-
TTITLE8=秋風-vent de automne-
TTITLE9=回想-Souvenir-
TTITLE10=雪国-Pays de neige-
TTITLE11=冬厳-Intensite de l'hiver-
TTITLE12=涙 -larme-
EXTD=
EXTT0=
EXTT1=
EXTT2=
EXTT3=
EXTT4=
EXTT5=
EXTT6=
EXTT7=
EXTT8=
EXTT9=
EXTT10=
EXTT11=
EXTT12=
PLAYORDER=
